<svg xmlns="http://www.w3.org/2000/svg" viewBox="0 0 1200 900" role="img" aria-labelledby="title desc">
  <title id="title">Temporary emotional birthday collage</title>
  <desc id="desc">A soft collage placeholder for the emotional reveal section.</desc>
  <defs>
    <linearGradient id="bg" x1="0" x2="1" y1="0" y2="1">
      <stop stop-color="#fff7ed"/>
      <stop offset=".48" stop-color="#fce7f3"/>
      <stop offset="1" stop-color="#dbeafe"/>
    </linearGradient>
  </defs>
  <rect width="1200" height="900" fill="url(#bg)"/>
  <g transform="translate(0 12)">
    <rect x="190" y="210" width="360" height="440" rx="40" fill="#fff" transform="rotate(-8 370 430)"/>
    <rect x="650" y="178" width="360" height="440" rx="40" fill="#fff" transform="rotate(8 830 398)"/>
    <rect x="370" y="360" width="430" height="330" rx="42" fill="#fff"/>
    <circle cx="360" cy="405" r="80" fill="#fb7185"/>
    <circle cx="840" cy="390" r="80" fill="#60a5fa"/>
    <path d="M445 562c54-72 116-72 170 0 54-72 116-72 170 0" fill="none" stroke="#111827" stroke-width="20" stroke-linecap="round"/>
    <path d="M525 255c36-52 92-52 128 0 36-52 92-52 128 0" fill="none" stroke="#fb7185" stroke-width="18" stroke-linecap="round"/>
    <text x="600" y="745" text-anchor="middle" font-family="Inter, Arial, sans-serif" font-size="56" font-weight="900" fill="#111827">JUNE BIRTHDAYS</text>
  </g>
</svg>
