<svg xmlns="http://www.w3.org/2000/svg" viewBox="0 0 320 320" role="img" aria-labelledby="title desc">
  <title id="title">Meme sticker bam hut roi</title>
  <desc id="desc">Placeholder meme sticker for missed click</desc>
  <defs>
    <filter id="shadow" x="-20%" y="-20%" width="140%" height="140%">
      <feDropShadow dx="0" dy="12" stdDeviation="10" flood-color="#020617" flood-opacity=".32"/>
    </filter>
  </defs>
  <path d="M58 30h204c28 0 48 21 48 49v146c0 29-20 50-48 50h-48l-48 34-8-34H58c-28 0-48-21-48-50V79c0-28 20-49 48-49Z" fill="#fff7ed" filter="url(#shadow)"/>
  <path d="M64 47h192c20 0 36 16 36 36v135c0 21-16 36-36 36H64c-20 0-36-15-36-36V83c0-20 16-36 36-36Z" fill="#fb7185"/>
  <circle cx="112" cy="128" r="38" fill="#fff"/>
  <circle cx="206" cy="128" r="38" fill="#fff"/>
  <circle cx="124" cy="135" r="12" fill="#0f172a"/>
  <circle cx="194" cy="135" r="12" fill="#0f172a"/>
  <path d="M113 197c34 24 69 24 102 0" fill="none" stroke="#fff7ed" stroke-width="16" stroke-linecap="round"/>
  <text x="160" y="78" text-anchor="middle" font-family="Arial, sans-serif" font-size="28" font-weight="900" fill="#fff7ed">BAM HUT ROI</text>
</svg>
