<svg xmlns="http://www.w3.org/2000/svg" viewBox="0 0 1200 900" role="img" aria-labelledby="title desc">
  <title id="title">Temporary couple celebration photo placeholder</title>
  <desc id="desc">A vivid illustrated placeholder for a couple memory photo.</desc>
  <defs>
    <linearGradient id="bg" x1="0" x2="1" y1="1" y2="0">
      <stop stop-color="#312e81"/>
      <stop offset=".52" stop-color="#db2777"/>
      <stop offset="1" stop-color="#facc15"/>
    </linearGradient>
    <radialGradient id="glow" cx=".5" cy=".42" r=".58">
      <stop stop-color="#fff7ed" stop-opacity=".85"/>
      <stop offset=".58" stop-color="#fff7ed" stop-opacity=".12"/>
      <stop offset="1" stop-color="#fff7ed" stop-opacity="0"/>
    </radialGradient>
  </defs>
  <rect width="1200" height="900" fill="url(#bg)"/>
  <rect width="1200" height="900" fill="url(#glow)"/>
  <g fill="none" stroke="#fff7ed" stroke-linecap="round" opacity=".7">
    <path d="M160 175c44-64 108-64 152 0 44-64 108-64 152 0" stroke-width="18"/>
    <path d="M760 188c34-48 82-48 116 0 34-48 82-48 116 0" stroke-width="15"/>
  </g>
  <g transform="translate(0 18)">
    <circle cx="500" cy="365" r="120" fill="#fef3c7"/>
    <circle cx="700" cy="365" r="120" fill="#dbeafe"/>
    <path d="M382 610c50-118 154-184 264-120 110-64 214 2 264 120" fill="#111827" opacity=".88"/>
    <path d="M500 520c44 50 156 50 200 0" fill="none" stroke="#fb7185" stroke-width="18" stroke-linecap="round"/>
    <path d="M574 315c18-26 52-26 70 0 18-26 52-26 70 0" fill="none" stroke="#ef4444" stroke-width="18" stroke-linecap="round"/>
  </g>
  <text x="600" y="765" text-anchor="middle" font-family="Inter, Arial, sans-serif" font-size="56" font-weight="900" fill="#fff7ed">LOVE EVIDENCE</text>
</svg>
