<svg xmlns="http://www.w3.org/2000/svg" viewBox="0 0 1200 900" role="img" aria-labelledby="title desc">
  <title id="title">Temporary memory photo placeholder</title>
  <desc id="desc">A soft illustrated placeholder for a meaningful memory photo.</desc>
  <defs>
    <linearGradient id="sky" x1="0" x2="0" y1="0" y2="1">
      <stop stop-color="#bae6fd"/>
      <stop offset=".55" stop-color="#fef3c7"/>
      <stop offset="1" stop-color="#fecdd3"/>
    </linearGradient>
  </defs>
  <rect width="1200" height="900" fill="url(#sky)"/>
  <circle cx="220" cy="190" r="90" fill="#facc15" opacity=".74"/>
  <path d="M0 690c160-120 310-135 470-46 160 88 310 88 470-8 122-73 204-74 260-26v290H0z" fill="#0f766e" opacity=".78"/>
  <path d="M260 610c70-92 150-92 220 0 70-92 150-92 220 0 70-92 150-92 220 0" fill="none" stroke="#fff7ed" stroke-width="24" stroke-linecap="round" opacity=".82"/>
  <g>
    <rect x="342" y="260" width="516" height="330" rx="34" fill="#fffaf0" opacity=".94"/>
    <rect x="390" y="315" width="420" height="170" rx="26" fill="#dbeafe"/>
    <circle cx="515" cy="405" r="56" fill="#fb7185"/>
    <circle cx="675" cy="405" r="56" fill="#60a5fa"/>
    <text x="600" y="548" text-anchor="middle" font-family="Inter, Arial, sans-serif" font-size="48" font-weight="900" fill="#134e4a">OUR MEMORY</text>
  </g>
</svg>
