<svg xmlns="http://www.w3.org/2000/svg" viewBox="0 0 1200 900" role="img" aria-labelledby="title desc">
  <title id="title">Temporary funny photo placeholder</title>
  <desc id="desc">A playful illustrated placeholder for a funny memory photo.</desc>
  <defs>
    <linearGradient id="bg" x1="0" x2="1" y1="0" y2="1">
      <stop stop-color="#0f172a"/>
      <stop offset=".5" stop-color="#581c87"/>
      <stop offset="1" stop-color="#be123c"/>
    </linearGradient>
  </defs>
  <rect width="1200" height="900" fill="url(#bg)"/>
  <g opacity=".22" fill="#fff">
    <circle cx="120" cy="150" r="10"/><circle cx="260" cy="290" r="8"/><circle cx="1040" cy="210" r="12"/>
    <circle cx="920" cy="710" r="9"/><circle cx="180" cy="760" r="14"/><circle cx="690" cy="120" r="7"/>
  </g>
  <g transform="rotate(-5 600 450)">
    <rect x="245" y="150" width="710" height="590" rx="50" fill="#fff7ed"/>
    <rect x="300" y="220" width="600" height="380" rx="38" fill="#fde68a"/>
    <circle cx="500" cy="390" r="105" fill="#fb7185"/>
    <circle cx="710" cy="390" r="105" fill="#38bdf8"/>
    <rect x="430" y="330" width="140" height="48" rx="24" fill="#111827"/>
    <rect x="650" y="330" width="140" height="48" rx="24" fill="#111827"/>
    <path d="M515 470c38 34 136 34 174 0" fill="none" stroke="#111827" stroke-width="20" stroke-linecap="round"/>
    <text x="600" y="682" text-anchor="middle" font-family="Inter, Arial, sans-serif" font-size="50" font-weight="900" fill="#111827">FUNNY PROOF</text>
  </g>
</svg>
