<svg xmlns="http://www.w3.org/2000/svg" viewBox="0 0 1200 900" role="img" aria-labelledby="title desc">
  <title id="title">Temporary birthday party photo placeholder</title>
  <desc id="desc">A colorful illustrated placeholder for a birthday party memory.</desc>
  <defs>
    <linearGradient id="bg" x1="0" x2="1" y1="0" y2="1">
      <stop stop-color="#f97316"/>
      <stop offset=".5" stop-color="#ec4899"/>
      <stop offset="1" stop-color="#06b6d4"/>
    </linearGradient>
  </defs>
  <rect width="1200" height="900" fill="url(#bg)"/>
  <g fill="#fff7ed" opacity=".75">
    <rect x="145" y="160" width="24" height="90" rx="12" transform="rotate(-24 157 205)"/>
    <rect x="1015" y="150" width="24" height="90" rx="12" transform="rotate(28 1027 195)"/>
    <circle cx="250" cy="700" r="20"/><circle cx="930" cy="640" r="18"/><circle cx="820" cy="230" r="14"/>
  </g>
  <g transform="translate(0 18)">
    <path d="M420 595h360l-42 118H462z" fill="#111827" opacity=".9"/>
    <rect x="440" y="420" width="320" height="180" rx="34" fill="#fff7ed"/>
    <path d="M440 480h320" stroke="#fb7185" stroke-width="34"/>
    <path d="M520 420V315M600 420V300M680 420V315" stroke="#fff7ed" stroke-width="22" stroke-linecap="round"/>
    <path d="M520 278c22 28 22 52 0 72-22-20-22-44 0-72zM600 260c22 28 22 52 0 72-22-20-22-44 0-72zM680 278c22 28 22 52 0 72-22-20-22-44 0-72z" fill="#facc15"/>
  </g>
  <text x="600" y="805" text-anchor="middle" font-family="Inter, Arial, sans-serif" font-size="58" font-weight="900" fill="#fff7ed">BIRTHDAY FILE</text>
</svg>
