<svg xmlns="http://www.w3.org/2000/svg" viewBox="0 0 320 320" role="img" aria-labelledby="title desc">
  <title id="title">Meme sticker tha lan nay</title>
  <desc id="desc">Placeholder meme sticker for final dodge</desc>
  <defs>
    <filter id="shadow" x="-20%" y="-20%" width="140%" height="140%">
      <feDropShadow dx="0" dy="12" stdDeviation="10" flood-color="#020617" flood-opacity=".32"/>
    </filter>
  </defs>
  <path d="M55 52c50-43 161-43 210 0 46 40 46 141 0 183-49 44-160 44-210 0-46-42-46-143 0-183Z" fill="#ede9fe" filter="url(#shadow)"/>
  <path d="M71 70c42-35 136-35 178 0 38 32 38 115 0 148-42 36-136 36-178 0-38-33-38-116 0-148Z" fill="#c084fc"/>
  <circle cx="116" cy="132" r="18" fill="#fff"/>
  <circle cx="204" cy="132" r="18" fill="#fff"/>
  <circle cx="116" cy="132" r="7" fill="#3b0764"/>
  <circle cx="204" cy="132" r="7" fill="#3b0764"/>
  <path d="M116 194c31 28 61 28 92 0" fill="none" stroke="#fff" stroke-width="15" stroke-linecap="round"/>
  <text x="160" y="263" text-anchor="middle" font-family="Arial, sans-serif" font-size="26" font-weight="900" fill="#3b0764">THA LAN NAY</text>
</svg>
